<svg width="40" height="40" fill="none" xmlns="http://www.w3.org/2000/svg"><path d="m35.161 23.205-8.434-19.32-1.84-1.276-2.156-.686-2.917-.785-3.425 1.471-2.283 1.275 8.625 19.321h12.43Z" fill="url('#paint0_linear_74_958')"/><path d="m4.892 16.743 8.435 19.366 1.84 1.278 2.156.688 2.917.787 3.425-1.475 2.283-1.278-8.625-19.366H4.893Z" fill="url('#paint1_linear_74_958')"/><path d="M13.655 4.136.56 23.064l13.095.14L23.12 4.136c.665-1.95 2.744-.813 3.701 0-4.088-7.49-10.481-3.121-13.167 0ZM26.346 35.864 39.44 16.936l-13.094-.14-9.466 19.068c-.665 1.95-2.744.813-3.701 0 4.088 7.49 10.481 3.121 13.167 0Z" fill="#fff"/><defs><linearGradient id="paint0_linear_74_958" x1="32.98" y1="23.205" x2="22.977" y2="4.491" gradientUnits="userSpaceOnUse"><stop/><stop offset=".495" stop-color="#fff"/><stop offset="1" stop-color="#fff"/></linearGradient><linearGradient id="paint1_linear_74_958" x1="7.074" y1="16.743" x2="17.114" y2="35.481" gradientUnits="userSpaceOnUse"><stop stop-color="#0C0C0C"/><stop offset=".495" stop-color="#fff"/><stop offset="1" stop-color="#fff"/></linearGradient></defs></svg>